<svg width="24" height="24" viewBox="0 0 24 24" fill="none" xmlns="http://www.w3.org/2000/svg">
  <defs>
    <linearGradient id="gradient" x1="0%" y1="0%" x2="100%" y2="100%">
      <stop offset="0%" style="stop-color:#FF69B4"/>
      <stop offset="25%" style="stop-color:#9932CC"/>
      <stop offset="50%" style="stop-color:#4B0082"/>
      <stop offset="75%" style="stop-color:#8A2BE2"/>
      <stop offset="100%" style="stop-color:#FF1493"/>
    </linearGradient>
  </defs>
  <path fill="url(#gradient)" d="M13.13 22.19L11.5 18.36C14.07 15.78 16.54 13.28 19 10.8C21.45 8.33 23.91 5.87 26.37 3.41C26.55 3.23 26.66 3 26.66 2.76C26.66 2.52 26.55 2.29 26.37 2.11C26.19 1.93 25.96 1.82 25.72 1.82C25.48 1.82 25.25 1.93 25.07 2.11C22.61 4.57 20.15 7.03 17.7 9.5C15.22 11.96 12.72 14.43 10.14 17C6.31 15.37 1.81 22.19 1.81 22.19C1.81 22.19 8.63 17.69 7 13.86C9.57 11.28 12.04 8.78 14.5 6.33C16.97 3.87 19.43 1.41 21.89 -1.05C22.07 -1.23 22.3 -1.34 22.54 -1.34C22.78 -1.34 23.01 -1.23 23.19 -1.05C23.37 -0.87 23.48 -0.64 23.48 -0.4C23.48 -0.16 23.37 0.07 23.19 0.25C20.73 2.71 18.27 5.17 15.82 7.62C13.34 10.08 10.85 12.55 8.27 15.13C12.1 13.5 13.13 22.19 13.13 22.19Z"/>
</svg> 