<?xml version="1.0" encoding="UTF-8" standalone="no"?>
<svg xmlns="http://www.w3.org/2000/svg" viewBox="0 0 300 300">
  <path fill="#1A1918" d="M259.833 43.4C230.916 14.481 193.632 0 154.5 0 115.367 0 78.084 14.481 49.167 43.4 20.248 72.317 5.767 109.6 5.767 148.733c0 39.134 14.481 76.417 43.4 105.334 28.917 28.916 66.2 43.4 105.333 43.4 39.132 0 76.416-14.484 105.333-43.4 28.917-28.917 43.4-66.2 43.4-105.334 0-39.133-14.483-76.416-43.4-105.333zm-105.333 197.1c-50.7 0-91.767-41.067-91.767-91.767 0-50.699 41.067-91.766 91.767-91.766 50.699 0 91.766 41.067 91.766 91.766 0 50.7-41.067 91.767-91.766 91.767z"/>
  <path fill="#EE0000" d="M154.5 239.533c-50.7 0-91.767-41.067-91.767-91.767 0-50.699 41.067-91.766 91.767-91.766 50.699 0 91.766 41.067 91.766 91.766 0 50.7-41.067 91.767-91.766 91.767zm47.066-91.766l-73.566 32.9-26.267-64.033 99.833 31.133z"/>
</svg> 