<?xml version="1.0" encoding="UTF-8" standalone="no"?>
<svg xmlns="http://www.w3.org/2000/svg" viewBox="0 0 60 43">
  <path fill="#2496ED" d="M57.643 18.523c-.936-.632-3.076-.756-4.719-.483-.212-1.547-1.078-2.895-2.64-4.106l-.897-.604-.603.897c-.785 1.169-1.078 3.135-.544 4.437.201.503.604 1.134 1.208 1.512-.846.403-2.516.604-4.257.403H.504l-.141.705c-.282 1.814.02 3.74.906 5.462l.383.705v.101c2.437 4.023 6.775 5.826 11.494 5.826 9.099 0 16.577-3.992 20.06-12.509 1.31.027 4.136 0 5.584-2.824.04-.08.382-.806.483-1.04l-.181-.282zM31.21 15.93h-4.075v4.075h4.075V15.93zm0-5.101h-4.075v4.075h4.075V10.83zm0-5.1h-4.075v4.075h4.075V5.729zm5.1 10.201h-4.074v4.075h4.075V15.93zm-10.2 0h-4.075v4.075h4.075V15.93zm-5.101 0h-4.075v4.075h4.075V15.93zm-5.1 0H11.83v4.075h4.075V15.93zm10.2-5.101h-4.074v4.075h4.075V10.83zm-5.1 0H15.93v4.075h4.075V10.83z"/>
</svg> 