<?xml version="1.0" encoding="UTF-8" standalone="no"?>
<svg xmlns="http://www.w3.org/2000/svg" viewBox="0 0 80 80">
  <path fill="#326CE5" d="M40 66.667c14.667 0 26.667-12 26.667-26.667S54.667 13.333 40 13.333 13.333 25.333 13.333 40 25.333 66.667 40 66.667zm0-60C58.4 6.667 73.333 21.6 73.333 40S58.4 73.333 40 73.333 6.667 58.4 6.667 40 21.6 6.667 40 6.667z"/>
  <path fill="#326CE5" d="M40 53.333c7.333 0 13.333-6 13.333-13.333S47.333 26.667 40 26.667 26.667 32.667 26.667 40 32.667 53.333 40 53.333zm0-20c3.733 0 6.667 2.933 6.667 6.667S43.733 46.667 40 46.667 33.333 43.733 33.333 40s2.934-6.667 6.667-6.667z"/>
  <path fill="#326CE5" d="M40 60c11.067 0 20-8.933 20-20s-8.933-20-20-20-20 8.933-20 20 8.933 20 20 20zm0-33.333c7.333 0 13.333 6 13.333 13.333S47.333 53.333 40 53.333 26.667 47.333 26.667 40 32.667 26.667 40 26.667z"/>
</svg> 